<?xml version="1.0" ?><svg id="Layer_1" style="enable-background:new 0 0 50 50;" version="1.1" viewBox="0 0 50 50" xml:space="preserve" xmlns="http://www.w3.org/2000/svg" xmlns:xlink="http://www.w3.org/1999/xlink"><style type="text/css">
	.st0{fill:#F0C4DB;}
	.st1{fill:#FF9D9C;}
	.st2{fill:#9BEAF9;}
	.st3{fill:#E9F4BC;}
	.st4{fill:#505050;}
	.st5{fill:#FEBECC;}
	.st6{fill:#FFFFFF;}
	.st7{fill:#FDE4A1;}
	.st8{fill:#FEE7B5;}
	.st9{fill:#CDF6FC;}
	.st10{fill:#F2C6DD;}
	.st11{opacity:0.1;}
</style><g><path class="st1" d="M2,16.66v26.71c0,1.23,1,2.23,2.23,2.23h41.55c1.23,0,2.23-0.99,2.23-2.23V16.66H2z"/><path class="st3" d="M48,10.53c0-1.23-0.99-2.23-2.23-2.23H40.8H9.2H4.23C3,8.31,2,9.3,2,10.53v6.13h46V10.53z"/><g><rect class="st6" height="4.77" width="4.77" x="18.25" y="20.74"/><rect class="st6" height="4.77" width="4.77" x="26.99" y="20.74"/><rect class="st6" height="4.77" width="4.77" x="35.72" y="20.74"/><rect class="st6" height="4.77" width="4.77" x="9.51" y="29.11"/><rect class="st6" height="4.77" width="4.77" x="18.25" y="29.11"/><rect class="st6" height="4.77" width="4.77" x="26.99" y="29.11"/><rect class="st6" height="4.77" width="4.77" x="35.72" y="29.11"/><rect class="st6" height="4.77" width="4.77" x="9.51" y="37.48"/><rect class="st6" height="4.77" width="4.77" x="18.25" y="37.48"/><rect class="st6" height="4.77" width="4.77" x="26.99" y="37.48"/></g><g><path class="st2" d="M13.05,6.33v4.15c0,1.06-0.87,1.93-1.93,1.93c-1.07,0-1.93-0.87-1.93-1.93V6.33c0-1.06,0.86-1.93,1.93-1.93    c0.53,0,1.01,0.22,1.37,0.56C12.84,5.32,13.05,5.8,13.05,6.33z"/><path class="st2" d="M22.3,6.33v4.15c0,1.06-0.87,1.93-1.93,1.93c-1.07,0-1.93-0.87-1.93-1.93V6.33c0-1.06,0.86-1.93,1.93-1.93    c0.53,0,1.01,0.22,1.37,0.56C22.09,5.32,22.3,5.8,22.3,6.33z"/><path class="st2" d="M31.55,6.33v4.15c0,1.06-0.87,1.93-1.93,1.93c-1.07,0-1.93-0.87-1.93-1.93V6.33c0-1.06,0.86-1.93,1.93-1.93    c0.53,0,1.01,0.22,1.37,0.56C31.34,5.32,31.55,5.8,31.55,6.33z"/><path class="st2" d="M40.81,6.33v4.15c0,1.06-0.87,1.93-1.93,1.93c-1.07,0-1.93-0.87-1.93-1.93V6.33c0-1.06,0.86-1.93,1.93-1.93    c0.53,0,1.01,0.22,1.37,0.56C40.59,5.32,40.81,5.8,40.81,6.33z"/></g><g><path class="st4" d="M45.77,7.56h-4.22V6.33c0-0.71-0.28-1.38-0.79-1.9c-0.51-0.5-1.18-0.78-1.89-0.78c-1.48,0-2.68,1.2-2.68,2.68    v1.22H32.3V6.33c0-0.71-0.28-1.38-0.79-1.9c-0.51-0.5-1.18-0.78-1.89-0.78c-1.48,0-2.68,1.2-2.68,2.68v1.22h-3.89V6.33    c0-0.71-0.28-1.38-0.79-1.9c-0.51-0.5-1.18-0.78-1.89-0.78c-1.48,0-2.68,1.2-2.68,2.68v1.22H13.8V6.33c0-0.71-0.28-1.38-0.79-1.9    c-0.51-0.5-1.18-0.78-1.89-0.78c-1.48,0-2.68,1.2-2.68,2.68v1.22H4.23c-1.64,0-2.98,1.33-2.98,2.98v32.84    c0,1.64,1.33,2.98,2.98,2.98h41.55c1.64,0,2.98-1.33,2.98-2.98V10.53C48.75,8.89,47.42,7.56,45.77,7.56z M37.7,6.33    c0-0.65,0.53-1.18,1.18-1.18c0.4,0,0.68,0.19,0.83,0.34c0.16,0.16,0.35,0.44,0.35,0.84V8.3c0,0,0,0.01,0,0.01s0,0.01,0,0.01v2.16    c0,0.65-0.53,1.18-1.18,1.18c-0.65,0-1.18-0.53-1.18-1.18V6.33z M28.45,6.33c0-0.65,0.53-1.18,1.18-1.18    c0.4,0,0.68,0.19,0.83,0.34c0.16,0.16,0.35,0.44,0.35,0.84v1.96c0,0.01,0,0.01,0,0.02s0,0.01,0,0.02v2.16    c0,0.65-0.53,1.18-1.18,1.18s-1.18-0.53-1.18-1.18V6.33z M20.38,5.15c0.4,0,0.68,0.19,0.83,0.34c0.16,0.16,0.35,0.44,0.35,0.84    v4.15c0,0.65-0.53,1.18-1.18,1.18c-0.65,0-1.18-0.53-1.18-1.18V8.32c0-0.01,0-0.01,0-0.01s0-0.01,0-0.01V6.33    C19.2,5.68,19.72,5.15,20.38,5.15z M11.12,5.15c0.4,0,0.68,0.19,0.83,0.34c0.16,0.16,0.35,0.44,0.35,0.84v4.15    c0,0.65-0.53,1.18-1.18,1.18c-0.65,0-1.18-0.53-1.18-1.18V8.31c0,0,0,0,0-0.01s0,0,0-0.01V6.33C9.95,5.68,10.47,5.15,11.12,5.15z     M4.23,9.06h4.22v1.42c0,1.48,1.2,2.68,2.68,2.68c1.48,0,2.68-1.2,2.68-2.68V9.06h3.89v1.42c0,1.48,1.2,2.68,2.68,2.68    c1.48,0,2.68-1.2,2.68-2.68V9.06h3.89v1.42c0,1.48,1.2,2.68,2.68,2.68s2.68-1.2,2.68-2.68V9.06h3.89v1.42    c0,1.48,1.2,2.68,2.68,2.68c1.48,0,2.68-1.2,2.68-2.68V9.06h4.22c0.81,0,1.48,0.66,1.48,1.48v5.38H2.75v-5.38    C2.75,9.72,3.41,9.06,4.23,9.06z M45.77,44.85H4.23c-0.81,0-1.48-0.66-1.48-1.48V17.41h44.5v25.96    C47.25,44.18,46.59,44.85,45.77,44.85z"/><path class="st4" d="M23.01,19.99h-4.77c-0.41,0-0.75,0.34-0.75,0.75v4.77c0,0.41,0.34,0.75,0.75,0.75h4.77    c0.41,0,0.75-0.34,0.75-0.75v-4.77C23.76,20.33,23.43,19.99,23.01,19.99z M22.26,24.76H19v-3.27h3.27V24.76z"/><path class="st4" d="M31.75,19.99h-4.77c-0.41,0-0.75,0.34-0.75,0.75v4.77c0,0.41,0.34,0.75,0.75,0.75h4.77    c0.41,0,0.75-0.34,0.75-0.75v-4.77C32.5,20.33,32.17,19.99,31.75,19.99z M31,24.76h-3.27v-3.27H31V24.76z"/><path class="st4" d="M40.49,19.99h-4.77c-0.41,0-0.75,0.34-0.75,0.75v4.77c0,0.41,0.34,0.75,0.75,0.75h4.77    c0.41,0,0.75-0.34,0.75-0.75v-4.77C41.24,20.33,40.91,19.99,40.49,19.99z M39.74,24.76h-3.27v-3.27h3.27V24.76z"/><path class="st4" d="M14.28,28.36H9.51c-0.41,0-0.75,0.34-0.75,0.75v4.77c0,0.41,0.34,0.75,0.75,0.75h4.77    c0.41,0,0.75-0.34,0.75-0.75v-4.77C15.03,28.69,14.69,28.36,14.28,28.36z M13.53,33.13h-3.27v-3.27h3.27V33.13z"/><path class="st4" d="M23.01,28.36h-4.77c-0.41,0-0.75,0.34-0.75,0.75v4.77c0,0.41,0.34,0.75,0.75,0.75h4.77    c0.41,0,0.75-0.34,0.75-0.75v-4.77C23.76,28.69,23.43,28.36,23.01,28.36z M22.26,33.13H19v-3.27h3.27V33.13z"/><path class="st4" d="M31.75,28.36h-4.77c-0.41,0-0.75,0.34-0.75,0.75v4.77c0,0.41,0.34,0.75,0.75,0.75h4.77    c0.41,0,0.75-0.34,0.75-0.75v-4.77C32.5,28.69,32.17,28.36,31.75,28.36z M31,33.13h-3.27v-3.27H31V33.13z"/><path class="st4" d="M40.49,28.36h-4.77c-0.41,0-0.75,0.34-0.75,0.75v4.77c0,0.41,0.34,0.75,0.75,0.75h4.77    c0.41,0,0.75-0.34,0.75-0.75v-4.77C41.24,28.69,40.91,28.36,40.49,28.36z M39.74,33.13h-3.27v-3.27h3.27V33.13z"/><path class="st4" d="M14.28,36.73H9.51c-0.41,0-0.75,0.34-0.75,0.75v4.77c0,0.41,0.34,0.75,0.75,0.75h4.77    c0.41,0,0.75-0.34,0.75-0.75v-4.77C15.03,37.06,14.69,36.73,14.28,36.73z M13.53,41.49h-3.27v-3.27h3.27V41.49z"/><path class="st4" d="M23.01,36.73h-4.77c-0.41,0-0.75,0.34-0.75,0.75v4.77c0,0.41,0.34,0.75,0.75,0.75h4.77    c0.41,0,0.75-0.34,0.75-0.75v-4.77C23.76,37.06,23.43,36.73,23.01,36.73z M22.26,41.49H19v-3.27h3.27V41.49z"/><path class="st4" d="M31.75,36.73h-4.77c-0.41,0-0.75,0.34-0.75,0.75v4.77c0,0.41,0.34,0.75,0.75,0.75h4.77    c0.41,0,0.75-0.34,0.75-0.75v-4.77C32.5,37.06,32.17,36.73,31.75,36.73z M31,41.49h-3.27v-3.27H31V41.49z"/></g></g></svg>