<?xml version="1.0" ?><svg id="Capa_1" style="enable-background:new 0 0 150 150;" version="1.1" viewBox="0 0 150 150" xml:space="preserve" xmlns="http://www.w3.org/2000/svg" xmlns:xlink="http://www.w3.org/1999/xlink"><style type="text/css">
	.st0{fill:#1A73E8;}
	.st1{fill:#EA4335;}
	.st2{fill:#4285F4;}
	.st3{fill:#FBBC04;}
	.st4{fill:#34A853;}
	.st5{fill:#4CAF50;}
	.st6{fill:#1E88E5;}
	.st7{fill:#E53935;}
	.st8{fill:#C62828;}
	.st9{fill:#FBC02D;}
	.st10{fill:#1565C0;}
	.st11{fill:#2E7D32;}
	.st12{fill:#F6B704;}
	.st13{fill:#E54335;}
	.st14{fill:#4280EF;}
	.st15{fill:#34A353;}
	.st16{clip-path:url(#SVGID_2_);}
	.st17{fill:#188038;}
	.st18{opacity:0.2;fill:#FFFFFF;enable-background:new    ;}
	.st19{opacity:0.3;fill:#0D652D;enable-background:new    ;}
	.st20{clip-path:url(#SVGID_4_);}
	.st21{opacity:0.3;fill:url(#_45_shadow_1_);enable-background:new    ;}
	.st22{clip-path:url(#SVGID_6_);}
	.st23{fill:#FA7B17;}
	.st24{opacity:0.3;fill:#174EA6;enable-background:new    ;}
	.st25{opacity:0.3;fill:#A50E0E;enable-background:new    ;}
	.st26{opacity:0.3;fill:#E37400;enable-background:new    ;}
	.st27{fill:url(#Finish_mask_1_);}
	.st28{fill:#FFFFFF;}
	.st29{fill:#0C9D58;}
	.st30{opacity:0.2;fill:#004D40;enable-background:new    ;}
	.st31{opacity:0.2;fill:#3E2723;enable-background:new    ;}
	.st32{fill:#FFC107;}
	.st33{opacity:0.2;fill:#1A237E;enable-background:new    ;}
	.st34{opacity:0.2;}
	.st35{fill:#1A237E;}
	.st36{fill:url(#SVGID_7_);}
	.st37{fill:#FBBC05;}
	.st38{clip-path:url(#SVGID_9_);fill:#E53935;}
	.st39{clip-path:url(#SVGID_11_);fill:#FBC02D;}
	.st40{clip-path:url(#SVGID_13_);fill:#E53935;}
	.st41{clip-path:url(#SVGID_15_);fill:#FBC02D;}
</style><g><path class="st0" d="M85.1,28.5c-3.2-1-6.6-1.6-10.1-1.6c-10.3,0-19.5,4.7-25.7,12l15.9,13.3L85.1,28.5z"/><path class="st1" d="M49.3,38.9c-4.9,5.8-7.9,13.4-7.9,21.6c0,6.3,1.3,11.4,3.3,16l20.4-24.2L49.3,38.9z"/><path class="st2" d="M75,47.6c7.1,0,12.8,5.7,12.8,12.8c0,3.2-1.1,6.1-3,8.3c0,0,10.1-12.1,20-23.8c-4.1-7.8-11.1-13.8-19.6-16.5   l-20,23.8C67.5,49.4,71,47.6,75,47.6"/><path class="st3" d="M75,73.3c-7.1,0-12.8-5.7-12.8-12.8c0-3.1,1.1-6,3-8.2L44.8,76.5C48.2,84.2,54,90.4,60,98.2l24.8-29.5   C82.5,71.5,78.9,73.3,75,73.3"/><path class="st4" d="M84.3,106.3c11.2-17.5,24.3-25.5,24.3-45.8c0-5.6-1.4-10.8-3.8-15.5L60,98.2c1.9,2.5,3.8,5.1,5.7,8.1   c6.8,10.5,4.9,16.8,9.3,16.8C79.4,123.1,77.5,116.8,84.3,106.3"/></g></svg>